# xmcd
#
# Track frame offsets:
#	150
#	24279
#	71442
#	93273
#	117980
#	143709
#	155699
#	185558
#
# Disc length: 2810 seconds
#
# Revision: 0
# Processed by: cddbd v1.5.2PL0 Copyright (c) Steve Scherf et al.
# Submitted via: audiograbber 1.83.01
#
DISCID=640af808
DTITLE=Grateful Dead - 71-03-24 Winterland Arena, San Francisco CA
DYEAR=1900
DGENRE=
TTITLE0=Casey Jones
TTITLE1=Hard To Handle
TTITLE2=Playing In The Band
TTITLE3=Not Fade Away
TTITLE4=Going Down The Road Feeling Bad
TTITLE5=Not Fade Away
TTITLE6=Uncle John's Band
TTITLE7=Crowd
EXTD=
EXTT0=
EXTT1=
EXTT2=
EXTT3=
EXTT4=
EXTT5=
EXTT6=
EXTT7=
PLAYORDER=
